HIERARCHY
ROOT teapot2
{
	OFFSET 0.000000 0.000000 0.000000
	CHANNELS 6 Xposition Yposition Zposition Yrotation Xrotation Zrotation
	End Site
	{
		OFFSET 0.000000 0.000000 0.000000
	}
}
MOTION
Frames: 70
Frame Time: 0.008333334
2.777339 3.606370 3.374729 74.344610 3.881130 -1.401398 
2.777297 3.606336 3.374813 74.347290 3.865397 -1.386932 
2.777313 3.606396 3.374813 74.361850 3.863028 -1.374329 
2.777309 3.606317 3.374892 74.364530 3.855371 -1.376923 
2.777204 3.606374 3.374748 74.353710 3.868367 -1.373047 
2.777163 3.606447 3.374624 74.356010 3.876067 -1.385620 
2.777082 3.606382 3.374430 74.353110 3.865030 -1.377350 
2.777007 3.606297 3.374253 74.342530 3.870800 -1.391846 
2.777085 3.606267 3.373922 74.339980 3.861138 -1.392853 
2.777169 3.606175 3.373647 74.350490 3.868921 -1.388336 
2.777236 3.606213 3.373491 74.352710 3.880058 -1.382294 
2.777272 3.606274 3.373299 74.361180 3.876293 -1.365417 
2.777349 3.606210 3.373384 74.359390 3.882859 -1.377411 
2.777286 3.606226 3.373427 74.357150 3.880521 -1.393036 
2.777165 3.606353 3.373632 74.350810 3.865813 -1.388611 
2.777120 3.606330 3.373933 74.344650 3.864278 -1.401764 
2.777138 3.606353 3.373952 74.341580 3.893518 -1.380249 
2.777220 3.606443 3.374188 74.360210 3.878804 -1.398224 
2.777177 3.606423 3.374344 74.347810 3.868690 -1.398071 
2.777159 3.606467 3.374409 74.340480 3.881418 -1.392426 
2.777193 3.606437 3.374463 74.343070 3.882146 -1.387665 
2.777188 3.606403 3.374485 74.345270 3.880049 -1.388947 
2.777230 3.606320 3.374459 74.349990 3.859237 -1.387177 
2.777365 3.606414 3.374318 74.367970 3.866246 -1.401672 
2.777309 3.606247 3.374076 74.356610 3.873483 -1.376465 
2.777229 3.606310 3.373921 74.353910 3.856265 -1.389252 
2.777214 3.606496 3.373808 74.349840 3.890206 -1.408203 
2.777196 3.606506 3.373596 74.353510 3.880386 -1.391602 
2.777178 3.606516 3.373384 74.357160 3.870566 -1.374969 
2.777131 3.606402 3.373560 74.346510 3.870148 -1.390076 
2.777185 3.606294 3.373645 74.357830 3.870484 -1.393829 
2.777248 3.606247 3.373655 74.366750 3.859527 -1.374390 
2.777214 3.606277 3.373778 74.351170 3.867536 -1.385010 
2.777153 3.606275 3.373957 74.342260 3.858069 -1.388245 
2.777154 3.606380 3.373968 74.348090 3.876998 -1.370392 
2.777258 3.606332 3.374214 74.354490 3.868674 -1.384460 
2.777259 3.606372 3.374369 74.363060 3.864442 -1.385681 
2.777220 3.606354 3.374390 74.351520 3.865084 -1.384827 
2.777263 3.606388 3.374403 74.361260 3.870746 -1.376068 
2.777288 3.606385 3.374233 74.357350 3.858634 -1.375214 
2.777271 3.606441 3.374166 74.349930 3.870786 -1.391968 
2.777379 3.606387 3.374093 74.366870 3.851091 -1.397034 
2.777318 3.606476 3.373918 74.358920 3.843662 -1.403656 
2.777259 3.606275 3.373753 74.353020 3.865059 -1.382660 
2.777170 3.606354 3.373590 74.353200 3.864453 -1.371674 
2.777081 3.606432 3.373428 74.353380 3.863846 -1.360657 
2.777108 3.606462 3.373419 74.353730 3.863744 -1.363556 
2.777162 3.606487 3.373423 74.357960 3.864857 -1.361389 
2.777294 3.606515 3.373460 74.367880 3.876039 -1.364014 
2.777325 3.606432 3.373596 74.379030 3.859169 -1.344910 
2.777343 3.606464 3.373671 74.370660 3.867488 -1.351776 
2.777267 3.606323 3.373937 74.346860 3.862422 -1.383240 
2.777176 3.606407 3.373892 74.345610 3.874900 -1.373840 
2.777246 3.606420 3.374104 74.350780 3.872890 -1.386475 
2.777214 3.606399 3.374122 74.343380 3.864752 -1.396362 
2.777198 3.606318 3.374112 74.345250 3.857921 -1.392609 
2.777214 3.606340 3.374051 74.344220 3.867091 -1.383270 
2.777299 3.606242 3.373974 74.355190 3.857573 -1.388550 
2.777317 3.606320 3.373862 74.352870 3.872457 -1.385864 
2.777395 3.606426 3.373729 74.355940 3.873433 -1.392975 
2.777319 3.606446 3.373693 74.344880 3.873568 -1.389191 
2.777391 3.606451 3.373557 74.348410 3.875659 -1.397186 
2.777345 3.606378 3.373562 74.343790 3.863721 -1.391266 
2.777317 3.606343 3.373506 74.342880 3.862585 -1.387451 
2.777260 3.606393 3.373450 74.355190 3.863183 -1.375977 
2.777284 3.606330 3.373650 74.346860 3.868531 -1.390839 
2.777316 3.606376 3.373678 74.353680 3.869365 -1.392883 
2.777373 3.606339 3.373722 74.364990 3.862931 -1.382111 
2.777315 3.606318 3.373901 74.355850 3.867192 -1.386017 
2.777288 3.606305 3.373986 74.347380 3.856767 -1.388824 
